<svg width="87" height="86" viewBox="0 0 87 86" fill="none" xmlns="http://www.w3.org/2000/svg">
<circle cx="43.5" cy="43" r="41.5" fill="#FF4000" stroke="#FFAFAF" stroke-width="3"/>
<path d="M34.6268 42.0834C34.6268 46.9779 38.6057 50.9567 43.5001 50.9567C48.3946 50.9567 52.3734 46.9779 52.3734 42.0834V32.0001C52.3734 27.1056 48.3946 23.1267 43.5001 23.1267C38.6057 23.1267 34.6268 27.1056 34.6268 32.0001V42.0834ZM37.7068 32.0001C37.7068 28.8095 40.3096 26.2067 43.5001 26.2067C46.6907 26.2067 49.2934 28.8095 49.2934 32.0001V42.0834C49.2934 45.274 46.6907 47.8767 43.5001 47.8767C40.3096 47.8767 37.7068 45.274 37.7068 42.0834V32.0001Z" fill="white" stroke="white" stroke-width="0.33"/>
<path d="M27.9352 41.8084C27.9352 50.3878 34.9208 57.3734 43.5002 57.3734C52.0797 57.3734 59.0652 50.3878 59.0652 41.8084V38.6917C59.0652 37.8489 58.368 37.1517 57.5252 37.1517C56.6824 37.1517 55.9852 37.8489 55.9852 38.6917V41.8084C55.9852 48.6839 50.3758 54.2934 43.5002 54.2934C36.6247 54.2934 31.0152 48.6839 31.0152 41.8084V38.6917C31.0152 37.8489 30.318 37.1517 29.4752 37.1517C28.6324 37.1517 27.9352 37.8489 27.9352 38.6917V41.8084Z" fill="white" stroke="white" stroke-width="0.33"/>
<path d="M45.5148 34.2443L45.5147 34.2444L45.5198 34.2461C45.7054 34.308 45.8887 34.3279 46.0487 34.3279C46.6667 34.3279 47.2587 33.938 47.5035 33.3258L47.5036 33.3259L47.5056 33.3203C47.7927 32.5205 47.3828 31.6371 46.5811 31.3493L46.581 31.3492C44.6017 30.6397 42.4173 30.6397 40.438 31.3492L40.4379 31.3493C39.6362 31.6371 39.2263 32.5205 39.5134 33.3203C39.8012 34.122 40.6846 34.532 41.4844 34.2449L41.4844 34.2449L41.4859 34.2443C42.7873 33.763 44.2134 33.763 45.5148 34.2443Z" fill="white" stroke="white" stroke-width="0.33"/>
<path d="M42.4257 38.1537C43.1301 37.9599 43.8513 37.9599 44.5557 38.1534L44.6003 37.9946C44.7286 38.0312 44.8386 38.0496 44.9669 38.0496C45.5719 38.0496 46.1403 37.6462 46.3053 37.0412L46.4643 37.085C46.4644 37.0849 46.4644 37.0849 46.4644 37.0849C46.6907 36.2615 46.1963 35.4208 45.3776 35.1955C44.1572 34.8576 42.8435 34.8576 41.623 35.1955C40.8058 35.4203 40.3087 36.2603 40.5364 37.0677L40.6953 37.0229L40.5362 37.0666C40.7613 37.8855 41.6022 38.3801 42.4257 38.1537Z" fill="white" stroke="white" stroke-width="0.33"/>
<path d="M41.9599 62.25C41.9599 63.0928 42.6571 63.79 43.4999 63.79C44.3427 63.79 45.0399 63.0928 45.0399 62.25L45.0399 55.8336C45.0399 54.9908 44.3427 54.2936 43.4999 54.2936C42.6571 54.2936 41.9599 54.9908 41.9599 55.8336L41.9599 62.25Z" fill="white" stroke="white" stroke-width="0.33"/>
<path d="M36.6249 62.0849C35.7821 62.0849 35.0849 62.7821 35.0849 63.6249C35.0849 64.4677 35.7821 65.1649 36.6249 65.1649L49.6874 65.1649C50.5302 65.1649 51.2274 64.4677 51.2274 63.6249C51.2274 62.7821 50.5302 62.0849 49.6874 62.0849L36.6249 62.0849Z" fill="white" stroke="white" stroke-width="0.33"/>
</svg>
