<svg width="42" height="39" viewBox="0 0 42 39" fill="none" xmlns="http://www.w3.org/2000/svg">
<path d="M1.1913 10.1782C1.57455 8.06366 2.44669 6.18735 3.81374 4.52995C5.7421 2.19052 8.23177 0.768393 11.2118 0.17125C11.7973 0.055098 12.3963 0 13.0014 0C18.4288 0.00893481 23.8563 0 29.2838 0.00595654C32.0119 0.0089348 34.4502 0.866676 36.5989 2.51068C39.3948 4.65206 40.9852 7.48588 41.4666 10.9347C41.5043 11.2087 41.4847 11.4916 41.4847 11.7701C41.4847 14.6903 41.5254 17.6105 41.4741 20.5307C41.4228 23.4032 40.347 25.905 38.4473 28.0761C36.4057 30.4096 33.8104 31.7334 30.758 32.2457C30.331 32.3172 29.8994 32.2785 29.4679 32.3455C29.0861 32.405 29.0197 32.554 29.0227 32.8845C29.0363 34.2977 29.0243 35.7109 29.0318 37.1256C29.0318 37.407 29.0016 37.6781 28.9322 37.9506C28.6908 38.9021 27.6994 39.2819 26.8439 38.7741C26.5451 38.5969 26.3294 38.2276 25.8963 38.3139C23.4399 36.4957 20.9321 34.7445 18.462 32.9456C18.0788 32.6671 17.6925 32.5227 17.2127 32.5316C16.1006 32.5525 14.9871 32.5584 13.8765 32.5346C8.77195 32.4229 4.86091 30.2726 2.33051 25.8484C-0.148215 21.5152 0.340267 14.8655 1.1913 10.1782Z" fill="#FFE5E5"/>
<path d="M28.9975 12.5906C29.0178 15.644 27.1649 18.2781 24.4573 19.1601C24.1766 19.2511 23.9633 19.3684 23.7855 19.6387C23.3994 20.228 22.72 20.4443 22.0621 20.257C21.4043 20.0711 20.9318 19.4858 20.8772 18.7514C20.8506 18.3915 20.8467 18.025 20.8798 17.6651C20.9623 16.7396 21.6316 16.1516 22.5955 16.1001C23.8325 16.0342 24.7849 15.4489 25.3628 14.3084C25.9381 13.1707 25.8873 12.0184 25.2358 10.9241C24.4928 9.67692 23.0451 9.10211 21.6798 9.47389C20.2803 9.85623 19.319 11.1087 19.2478 12.6433C19.1882 13.9314 18.1734 14.7198 17.0876 14.3216C16.459 14.0909 16.031 13.4844 16.0043 12.7844C15.876 9.44357 18.6243 6.26492 21.8538 6.02102C25.3704 5.75602 28.2393 8.01839 28.9009 11.5926C28.9695 11.963 28.9771 12.344 29 12.5893L28.9975 12.5906Z" fill="#FF4000"/>
<path d="M24.2727 25.6876C24.2741 26.6977 23.4937 27.4891 22.4995 27.4834C21.5302 27.4792 20.7109 26.6402 20.7275 25.6665C20.7442 24.6998 21.5343 23.9099 22.4939 23.9029C23.4937 23.8959 24.2714 24.6746 24.2727 25.6876Z" fill="#FF4000"/>
</svg>
